<svg width="74" height="71" viewBox="0 0 74 71" fill="none" xmlns="http://www.w3.org/2000/svg">
<path d="M48.9625 35.5L71.4781 14.3594C74.7531 11.2844 74.7531 6.67187 71.4781 3.59687C70.25 2.05937 68.2031 0.90625 66.1562 0.90625C64.1094 0.90625 62.0625 1.675 60.425 3.2125L37.5 24.7375L14.9844 3.59687C11.7094 0.521874 6.3875 0.521874 3.52187 3.59687C1.88437 4.75 0.65625 6.67188 0.65625 8.97813C0.65625 11.2844 1.475 12.8219 3.1125 14.3594L25.6281 35.5L3.1125 56.6406C1.88437 58.1781 0.65625 60.1 0.65625 62.4062C0.65625 64.3281 1.475 66.25 3.1125 67.7875C4.75 69.325 6.79688 70.0938 8.84375 70.0938C10.8906 70.0938 12.9375 69.325 14.575 67.7875L37.0906 46.6469L59.6062 67.7875C62.8812 70.8625 68.2031 70.8625 71.0688 67.7875C74.3438 64.7125 74.3438 59.7156 71.0688 57.025L48.9625 35.5Z" fill="white"/>
</svg>
