<svg width="78" height="69" viewBox="0 0 78 69" fill="none" xmlns="http://www.w3.org/2000/svg" color="#000000">
<path fill-rule="evenodd" clip-rule="evenodd" d="M0.800293 13.6667C0.800293 6.11877 7.69803 0 16.2068 0H62.4265C70.9351 0 77.833 6.11877 77.833 13.6667V54.6667C77.833 62.2144 70.9351 68.3333 62.4265 68.3333H16.2068C7.69803 68.3333 0.800293 62.2144 0.800293 54.6667V13.6667ZM16.2068 6.83333C11.9524 6.83333 8.50357 9.89272 8.50357 13.6667V54.6667C8.50357 58.4407 11.9524 61.5 16.2068 61.5H39.3167V37.5833H35.465C33.3378 37.5833 31.6134 36.0537 31.6134 34.1667C31.6134 32.2796 33.3378 30.75 35.465 30.75H39.3167V25.625C39.3167 19.0206 45.3522 13.6667 52.7974 13.6667H55.1084C57.2356 13.6667 58.96 15.1964 58.96 17.0833C58.96 18.9703 57.2356 20.5 55.1084 20.5H52.7974C49.6067 20.5 47.0199 22.7945 47.0199 25.625V30.75H55.1084C57.2356 30.75 58.96 32.2796 58.96 34.1667C58.96 36.0537 57.2356 37.5833 55.1084 37.5833H47.0199V61.5H62.4265C66.681 61.5 70.1297 58.4407 70.1297 54.6667V13.6667C70.1297 9.89272 66.681 6.83333 62.4265 6.83333H16.2068Z" fill="white"/>
</svg>
