<svg width="76" height="70" viewBox="0 0 76 70" fill="none" xmlns="http://www.w3.org/2000/svg" color="#000000">
<path fill-rule="evenodd" clip-rule="evenodd" d="M22.771 0.429552C16.6468 0.686627 11.3387 2.07962 7.05247 6.0504C2.75131 10.042 1.27262 15 0.995605 20.6383C0.823407 24.1575 -0.183511 50.7441 2.73634 57.7164C4.70537 62.4202 8.58343 66.0369 13.6857 67.8746C16.0665 68.7362 18.7843 69.3194 22.771 69.4896C56.1059 70.8931 68.4628 70.129 73.6736 57.7164C74.5983 55.5069 75.2347 52.9807 75.4106 49.2809C76.9342 18.1885 75.1636 11.449 69.3538 6.0504C64.7457 1.77389 59.3253 -1.13722 22.771 0.429552ZM23.0779 63.2364C19.4281 63.0835 17.4478 62.5178 16.1264 62.0419C12.8023 60.8398 10.3054 58.5265 9.02145 55.452C6.79787 50.1541 7.53535 24.9918 7.73375 20.9203C7.92841 16.9321 8.79686 13.2872 11.8215 10.4733C15.5649 6.99922 20.4013 5.29663 53.332 6.67931C57.6294 6.85994 61.5563 7.66625 64.5885 10.4733C68.3319 13.9472 70.1886 18.4814 68.6762 49.0006C68.5115 52.3878 67.9014 54.2257 67.3885 55.452C64.0008 63.5291 56.2069 64.6503 23.0779 63.2364ZM53.6951 16.4137C53.6951 18.7135 55.7054 20.5836 58.1873 20.5836C60.6692 20.5836 62.6831 18.7135 62.6831 16.4137C62.6831 14.1139 60.6692 12.2455 58.1873 12.2455C55.7054 12.2455 53.6951 14.1139 53.6951 16.4137ZM18.9826 34.9579C18.9826 44.8102 27.5887 52.798 38.205 52.798C48.8213 52.798 57.4274 44.8102 57.4274 34.9579C57.4274 25.1056 48.8213 17.1229 38.205 17.1229C27.5887 17.1229 18.9826 25.1056 18.9826 34.9579ZM25.7282 34.9579C25.7282 28.5657 31.3134 23.3795 38.205 23.3795C45.0966 23.3795 50.6818 28.5657 50.6818 34.9579C50.6818 41.3535 45.0966 46.5414 38.205 46.5414C31.3134 46.5414 25.7282 41.3535 25.7282 34.9579Z" fill="white"/>
</svg>
