<svg width="76" height="50" viewBox="0 0 76 50" fill="none" xmlns="http://www.w3.org/2000/svg">
<path d="M68.6386 49.0625H7.50504C3.61601 49.0625 0.451172 46.1181 0.451172 42.5V7.5C0.451172 3.88187 3.61601 0.9375 7.50504 0.9375H68.6386C72.5276 0.9375 75.6924 3.88187 75.6924 7.5V42.5C75.6924 46.1181 72.5276 49.0625 68.6386 49.0625ZM7.50504 44.6875H68.6386C69.9341 44.6875 70.9899 43.7075 70.9899 42.5V8.19344L39.6025 33.2228C39.1604 33.575 38.6173 33.75 38.0718 33.75C37.5263 33.75 36.9832 33.575 36.5411 33.2228L5.15375 8.19344V42.5C5.15375 43.7075 6.20948 44.6875 7.50504 44.6875ZM67.3783 5.3125H8.76533L38.0718 28.6816L67.3783 5.3125Z" fill="white"/>
</svg>
