<svg fill="#fff" height="64px" width="64px" version="1.1" id="Layer_1" xmlns="http://www.w3.org/2000/svg" xmlns:xlink="http://www.w3.org/1999/xlink" viewBox="0 0 512.001 512.001" xml:space="preserve" stroke="#fff"><g id="SVGRepo_bgCarrier" stroke-width="0"></g><g id="SVGRepo_tracerCarrier" stroke-linecap="round" stroke-linejoin="round"></g><g id="SVGRepo_iconCarrier"> <g> <g> <g> <path d="M445.522,188.711h-29.679v-68.504c0-36.656-29.821-66.478-66.478-66.478H66.478C29.821,53.728,0,83.551,0,120.206 v136.606c0,36.656,29.821,66.478,66.478,66.478h29.679v68.504c0,36.656,29.821,66.478,66.478,66.478h282.888 c36.656,0,66.478-29.821,66.478-66.478V255.188C512,218.532,482.177,188.711,445.522,188.711z M96.156,255.189v27.414H66.478 v-0.001c-14.22,0-25.791-11.569-25.791-25.791V120.206c0-14.22,11.569-25.791,25.791-25.791h282.888 c14.22,0,25.791,11.569,25.791,25.791v68.504H162.634C125.979,188.711,96.156,218.532,96.156,255.189z M471.312,391.794 c0,14.22-11.569,25.791-25.791,25.791H162.634c-14.22,0-25.791-11.569-25.791-25.791V255.188 c0-14.22,11.569-25.791,25.791-25.791h282.888c14.22,0,25.791,11.569,25.791,25.791V391.794z"></path> <path d="M326.155,144.202c0-11.235-9.109-20.344-20.344-20.344H88.69c-11.235,0-20.344,9.109-20.344,20.344 c0,11.235,9.109,20.344,20.344,20.344h217.123C317.048,164.546,326.155,155.438,326.155,144.202z"></path> <path d="M203.716,252.51H190.81c-11.235,0-20.344,9.109-20.344,20.344s9.109,20.344,20.344,20.344h12.906 c11.235,0,20.344-9.109,20.344-20.344S214.952,252.51,203.716,252.51z"></path> <path d="M203.716,303.147H190.81c-11.235,0-20.344,9.109-20.344,20.344s9.109,20.344,20.344,20.344h12.906 c11.235,0,20.344-9.109,20.344-20.344S214.952,303.147,203.716,303.147z"></path> <path d="M416.987,275.64h-44.27c-22.466,0-40.746,18.278-40.746,40.745v44.27c0,22.466,18.28,40.745,40.746,40.745h44.27 c22.465,0,40.743-18.278,40.743-40.745v-44.27C457.731,293.918,439.454,275.64,416.987,275.64z M417.043,360.654L417.043,360.654 l-0.056,0.057l-44.328-0.057l0.058-44.327l44.325,0.057V360.654z"></path> </g> </g> </g> </g></svg>