<svg width="94" height="70" viewBox="0 0 94 64" color="#000000" fill="none" xmlns="http://www.w3.org/2000/svg">
<path fill-rule="evenodd" clip-rule="evenodd" d="M37.4393 14.5761C36.2473 13.9522 34.7827 13.9567 33.5951 14.5879C32.4076 15.2191 31.6768 16.3816 31.6768 17.6391V45.8613C31.6768 47.119 32.4076 48.2814 33.5951 48.9125C34.7827 49.5436 36.2473 49.5482 37.4393 48.9241L64.4006 34.813C65.6008 34.1851 66.3415 33.0163 66.3415 31.7502C66.3415 30.4841 65.6008 29.3153 64.4006 28.6874L37.4393 14.5761ZM54.7265 31.7502L39.38 39.7823V23.7181L54.7265 31.7502Z" fill="white"/>
<path fill-rule="evenodd" clip-rule="evenodd" d="M0.863281 31.75C0.863281 18.5218 0.863281 11.9077 4.54127 7.271C5.72909 5.77356 7.16687 4.45668 8.80177 3.36871C13.8641 2.10272e-07 21.0854 0 35.528 0H58.6378C73.0803 0 80.3017 2.10272e-07 85.3639 3.36871C86.999 4.45668 88.4368 5.77356 89.6246 7.271C93.3025 11.9077 93.3026 18.5218 93.3026 31.75C93.3026 44.9781 93.3025 51.5923 89.6246 56.2289C88.4368 57.7264 86.999 59.0434 85.3639 60.1313C80.3017 63.5 73.0803 63.5 58.6378 63.5H35.528C21.0854 63.5 13.8641 63.5 8.80177 60.1313C7.16687 59.0434 5.72909 57.7264 4.54127 56.2289C0.863281 51.5923 0.863281 44.9781 0.863281 31.75ZM35.528 7.05556H58.6378C66.0307 7.05556 70.9565 7.06526 74.6887 7.4356C78.2769 7.79166 79.8372 8.41191 80.8363 9.0768C81.817 9.72958 82.6797 10.5197 83.3927 11.4181C84.1183 12.3333 84.7954 13.7623 85.1845 17.0487C85.5889 20.467 85.5993 24.9788 85.5993 31.75C85.5993 38.5212 85.5889 43.0329 85.1845 46.4513C84.7954 49.7378 84.1183 51.1669 83.3927 52.082C82.6797 52.9802 81.817 53.7704 80.8363 54.4234C79.8372 55.088 78.2769 55.7082 74.6887 56.0645C70.9565 56.4349 66.0307 56.4444 58.6378 56.4444H35.528C28.1351 56.4444 23.2092 56.4349 19.477 56.0645C15.889 55.7082 14.3288 55.088 13.3296 54.4234C12.3487 53.7704 11.4861 52.9802 10.7733 52.082C10.0474 51.1669 9.37024 49.7378 8.98149 46.4513C8.57715 43.0329 8.56655 38.5212 8.56655 31.75C8.56655 24.9788 8.57715 20.467 8.98149 17.0487C9.37024 13.7623 10.0474 12.3333 10.7733 11.4181C11.4861 10.5197 12.3487 9.72958 13.3296 9.0768C14.3288 8.41191 15.889 7.79166 19.477 7.4356C23.2092 7.06526 28.1351 7.05556 35.528 7.05556Z" fill="white"/>
</svg>
